<svg width="169" height="43" viewBox="0 0 169 43" fill="none" xmlns="http://www.w3.org/2000/svg">
<rect width="169" height="43" fill="#F9F5F3"/>
<path d="M22.592 30L18.584 24.384C17.992 24.464 17.448 24.504 16.952 24.504H12.152V30H10.928V13.2H16.952C19.064 13.2 20.72 13.704 21.92 14.712C23.12 15.704 23.72 17.088 23.72 18.864C23.72 20.192 23.376 21.312 22.688 22.224C22.016 23.12 21.048 23.752 19.784 24.12L23.984 30H22.592ZM16.952 23.424C18.744 23.424 20.112 23.032 21.056 22.248C22 21.448 22.472 20.32 22.472 18.864C22.472 17.408 22 16.288 21.056 15.504C20.112 14.704 18.744 14.304 16.952 14.304H12.152V23.424H16.952ZM36.2174 17.472H37.4174V30H36.2174V17.472ZM36.8174 14.424C36.5454 14.424 36.3134 14.336 36.1214 14.16C35.9294 13.968 35.8334 13.736 35.8334 13.464C35.8334 13.192 35.9294 12.96 36.1214 12.768C36.3134 12.576 36.5454 12.48 36.8174 12.48C37.0894 12.48 37.3214 12.576 37.5134 12.768C37.7054 12.944 37.8014 13.168 37.8014 13.44C37.8014 13.712 37.7054 13.944 37.5134 14.136C37.3214 14.328 37.0894 14.424 36.8174 14.424ZM54.0432 30.096C53.0352 30.096 52.0752 29.944 51.1632 29.64C50.2512 29.336 49.5392 28.952 49.0272 28.488L49.5792 27.528C50.0912 27.96 50.7472 28.32 51.5472 28.608C52.3632 28.896 53.2112 29.04 54.0912 29.04C55.3552 29.04 56.2832 28.832 56.8752 28.416C57.4832 28 57.7872 27.424 57.7872 26.688C57.7872 26.16 57.6192 25.744 57.2832 25.44C56.9632 25.136 56.5632 24.912 56.0832 24.768C55.6032 24.624 54.9392 24.472 54.0912 24.312C53.0992 24.136 52.2992 23.944 51.6912 23.736C51.0832 23.528 50.5632 23.192 50.1312 22.728C49.6992 22.264 49.4832 21.624 49.4832 20.808C49.4832 19.816 49.8912 19 50.7072 18.36C51.5392 17.704 52.7152 17.376 54.2352 17.376C55.0352 17.376 55.8272 17.488 56.6112 17.712C57.3952 17.936 58.0352 18.232 58.5312 18.6L57.9792 19.56C57.4672 19.192 56.8832 18.912 56.2272 18.72C55.5712 18.528 54.8992 18.432 54.2112 18.432C53.0432 18.432 52.1632 18.648 51.5712 19.08C50.9792 19.512 50.6832 20.08 50.6832 20.784C50.6832 21.344 50.8512 21.784 51.1872 22.104C51.5232 22.408 51.9312 22.64 52.4112 22.8C52.9072 22.944 53.5952 23.104 54.4752 23.28C55.4512 23.456 56.2352 23.648 56.8272 23.856C57.4352 24.048 57.9472 24.368 58.3632 24.816C58.7792 25.264 58.9873 25.88 58.9873 26.664C58.9873 27.704 58.5552 28.536 57.6912 29.16C56.8272 29.784 55.6112 30.096 54.0432 30.096ZM81.3202 24.024H70.5442C70.5762 25 70.8242 25.872 71.2882 26.64C71.7522 27.392 72.3762 27.976 73.1602 28.392C73.9602 28.808 74.8562 29.016 75.8482 29.016C76.6642 29.016 77.4162 28.872 78.1042 28.584C78.8082 28.28 79.3922 27.84 79.8562 27.264L80.5522 28.056C80.0082 28.712 79.3202 29.216 78.4882 29.568C77.6722 29.92 76.7842 30.096 75.8242 30.096C74.5762 30.096 73.4642 29.824 72.4882 29.28C71.5122 28.736 70.7442 27.984 70.1842 27.024C69.6402 26.064 69.3682 24.968 69.3682 23.736C69.3682 22.52 69.6242 21.432 70.1362 20.472C70.6642 19.496 71.3842 18.736 72.2962 18.192C73.2082 17.648 74.2322 17.376 75.3682 17.376C76.5042 17.376 77.5202 17.648 78.4162 18.192C79.3282 18.72 80.0402 19.464 80.5522 20.424C81.0802 21.384 81.3442 22.472 81.3442 23.688L81.3202 24.024ZM75.3682 18.432C74.4882 18.432 73.6962 18.632 72.9922 19.032C72.2882 19.416 71.7202 19.968 71.2882 20.688C70.8722 21.392 70.6322 22.192 70.5682 23.088H80.1682C80.1202 22.192 79.8802 21.392 79.4482 20.688C79.0162 19.984 78.4482 19.432 77.7442 19.032C77.0402 18.632 76.2482 18.432 75.3682 18.432Z" fill="#2F2F2F"/>
<path d="M104.736 21.288C105.712 21.56 106.48 22.056 107.04 22.776C107.6 23.48 107.88 24.376 107.88 25.464C107.88 26.92 107.328 28.04 106.224 28.824C105.136 29.608 103.544 30 101.448 30H93.4325V13.2H100.968C102.888 13.2 104.368 13.584 105.408 14.352C106.464 15.12 106.992 16.184 106.992 17.544C106.992 18.424 106.784 19.184 106.368 19.824C105.968 20.464 105.424 20.952 104.736 21.288ZM95.8325 15.144V20.52H100.752C101.984 20.52 102.928 20.296 103.584 19.848C104.256 19.384 104.592 18.712 104.592 17.832C104.592 16.952 104.256 16.288 103.584 15.84C102.928 15.376 101.984 15.144 100.752 15.144H95.8325ZM101.352 28.056C102.712 28.056 103.736 27.832 104.424 27.384C105.112 26.936 105.456 26.232 105.456 25.272C105.456 23.4 104.088 22.464 101.352 22.464H95.8325V28.056H101.352ZM126.453 17.16C128.069 17.16 129.349 17.632 130.293 18.576C131.253 19.504 131.733 20.872 131.733 22.68V30H129.429V22.944C129.429 21.712 129.133 20.784 128.541 20.16C127.949 19.536 127.101 19.224 125.997 19.224C124.749 19.224 123.765 19.592 123.045 20.328C122.325 21.048 121.965 22.088 121.965 23.448V30H119.661V17.28H121.869V19.2C122.333 18.544 122.957 18.04 123.741 17.688C124.541 17.336 125.445 17.16 126.453 17.16ZM156.036 21.288C157.012 21.56 157.78 22.056 158.34 22.776C158.9 23.48 159.18 24.376 159.18 25.464C159.18 26.92 158.628 28.04 157.524 28.824C156.436 29.608 154.844 30 152.748 30H144.732V13.2H152.268C154.188 13.2 155.668 13.584 156.708 14.352C157.764 15.12 158.292 16.184 158.292 17.544C158.292 18.424 158.084 19.184 157.668 19.824C157.268 20.464 156.724 20.952 156.036 21.288ZM147.132 15.144V20.52H152.052C153.284 20.52 154.228 20.296 154.884 19.848C155.556 19.384 155.892 18.712 155.892 17.832C155.892 16.952 155.556 16.288 154.884 15.84C154.228 15.376 153.284 15.144 152.052 15.144H147.132ZM152.652 28.056C154.012 28.056 155.036 27.832 155.724 27.384C156.412 26.936 156.756 26.232 156.756 25.272C156.756 23.4 155.388 22.464 152.652 22.464H147.132V28.056H152.652Z" fill="#DE3E1F"/>
</svg>
